<svg xmlns="http://www.w3.org/2000/svg" viewBox="0 0 512 512" style="enable-background:new 0 0 512 512" xml:space="preserve"><path style="fill:#b27214" d="M8.477 58.896h495.049v394.199H8.477z"/><path style="fill:#f7b239" d="M46.373 96.804h419.245v318.395H46.373z"/><path style="fill:#f95428" d="M465.626 96.796v167.578l-86.553-41.558 43.073-126.02z"/><path style="fill:#2ba5f7" d="M465.626 324.853v90.35H321.014l-33.828-33.828 53.652-53.64 63.835-63.835z"/><path style="fill:#9ad14b" d="m422.146 96.796-43.073 126.02-61.733-29.646c0-53.222-43.152-96.374-96.374-96.374h201.18zM340.838 327.735l-53.652 53.64 33.828 33.828H46.381v-27.634l62.716-35.229h153.948l-36.348-62.965a95.791 95.791 0 0 0 47.187-15.654l66.954 54.014z"/><path style="fill:#f95428" d="M317.341 193.17c0 33.681-17.281 63.315-43.457 80.551a95.811 95.811 0 0 1-47.187 15.654h-.011l-40.62-70.368-27.476 47.605c-20.807-17.665-33.997-44.011-33.997-73.442 0-53.222 43.152-96.374 96.374-96.374s96.374 43.152 96.374 96.374z"/><path style="fill:#2ba5f7" d="m226.697 289.375 36.348 62.965H109.097l27.6-47.82 21.892-37.908 27.476-47.605 40.62 70.368z"/><path style="fill:#9ad14b" d="M46.381 96.796h174.586c-53.222 0-96.374 43.152-96.374 96.374l-78.211-62.162-.001-34.212zM158.589 266.612l-21.892 37.908H46.381v-83.094z"/><path style="fill:#333" d="M503.523 50.424H8.477A8.477 8.477 0 0 0 0 58.901v394.198a8.477 8.477 0 0 0 8.477 8.477h495.047a8.476 8.476 0 0 0 8.477-8.477V58.901a8.479 8.479 0 0 0-8.478-8.477zm-282.427 54.852c48.407.071 87.767 39.471 87.767 87.894 0 44.752-33.663 82.125-77.537 87.275l-37.918-65.675a8.477 8.477 0 0 0-14.682 0l-22.094 38.268a87.687 87.687 0 0 1-23.565-59.868c0-48.423 39.36-87.823 87.766-87.894h.263zm119.132 211.075-52.519-42.362c20.128-16.658 33.881-40.658 37.268-67.749l132.172 63.468v34.68l-46.48-46.48a8.476 8.476 0 0 0-11.987 0l-58.454 58.443zm116.92-65.449-67.618-32.47 38.677-113.156h28.94v145.626zm-83.008-39.859-48.459-23.269c-1.76-34.527-20.303-64.694-47.611-82.496h132.221L374.14 211.043zM102.914 346.086l-48.062 26.999V313h67.163l-19.101 33.086zm13.293-148.752a104.613 104.613 0 0 0 14.274 48.822l-75.628-30.454v-67.13l61.354 48.762zm15.597 98.713H54.852v-62.068l91.512 36.85-14.56 25.218zm54.266-60.085 62.296 107.899H123.774l62.296-107.899zm-68.648-59.317-62.57-49.728v-21.642h109.011c-24.328 15.862-41.697 41.539-46.441 71.37zM54.852 392.53l56.458-31.715h151.738a8.478 8.478 0 0 0 7.341-12.715l-29.971-51.912a103.952 103.952 0 0 0 32.784-12.121l54.97 44.34-46.978 46.974a8.477 8.477 0 0 0 0 11.989l19.355 19.355H54.852V392.53zm269.67 14.194-25.348-25.349 105.498-105.488 52.475 52.476v78.361H324.522zM462.113 88.323H221.228l-.261-.003-.261.003H49.887L28.942 67.378h454.117l-20.946 20.945zM37.899 100.311v311.378l-20.945 20.946V79.366l20.945 20.945zm11.988 323.366h412.225l20.945 20.945H28.942l20.945-20.945zm424.214-11.988V100.311l20.945-20.945v353.268l-20.945-20.945z"/></svg>